<svg width="1500" height="500" viewBox="0 0 1500 500" fill="none" xmlns="http://www.w3.org/2000/svg">
<path d="M467.9 338.1V196.3H557.5V206.3H478.5V328.1H557.5V338.1H467.9ZM500.9 270.4V260.4H552.5V270.4H500.9Z" fill="black"/>
<path d="M668.901 234.4H679.901L642.301 337.2H628.301L590.301 234.4H601.301L635.301 328.2L668.901 234.4Z" fill="black"/>
<path d="M707.701 281.8C709.101 250.8 728.701 232.8 755.101 233.4C787.101 233.8 801.101 259.4 798.101 286.8H741.701L741.101 276.8H787.701C787.701 258.8 775.701 243.4 756.101 243.4C736.501 243.4 719.101 261.8 718.101 282.4C716.701 313.8 733.701 330.2 757.101 330.2C780.501 330.2 783.701 323.2 786.701 307.2H797.701C793.101 328.2 779.701 340.8 756.701 340.8C726.101 341.2 706.101 320.2 707.701 281.8Z" fill="black"/>
<path d="M833.7 234.8H843.7V337.8H833.7V234.8ZM912.7 337.8H902.1V270.8C902.7 258.4 896.1 242.8 878.1 242.8C860.1 242.8 857.7 247.8 849.7 254.8V242.8C858.1 236.4 868.1 232.8 878.1 232.8C901.7 233.4 912.1 249.4 912.7 270.8V337.8Z" fill="black"/>
<path d="M973.9 234.4H995.3V244.4H973.9V337.2H963.9V244.4H941.9V234.4H963.9V206.4H973.9V234.4Z" fill="black"/>
<path d="M1127.5 327.8V337.2C1111.5 337.8 1104.5 331.2 1102.5 320.8C1096.5 331.8 1085.5 337.8 1070.5 338.2C1044.1 339.2 1024.1 320.2 1023.1 287.8C1021.5 252.4 1043.5 234.8 1067.1 234.4C1074.5 234.4 1082.1 235.4 1089.1 237.8V248.4C1082.5 245.4 1075.1 243.4 1068.1 243.8C1051.5 244.4 1032.5 256.4 1032.5 286.4C1033.1 310.2 1047.5 329.2 1069.5 328.8C1087.5 328.8 1100.1 316.8 1100.5 297.4V234.4H1111.1V306.8C1110.5 323.8 1114.5 327.8 1127.5 327.8Z" fill="black"/>
<path d="M1202.7 338.8C1194.1 338.8 1187.1 336.4 1181.7 332.8L1182.1 320.8C1187.7 325.8 1194.7 328.8 1202.7 328.8C1225.7 328.8 1236.1 307.8 1236.1 286.4C1236.1 265 1222.1 243.8 1202.1 243.8C1182.1 243.8 1179.7 248.8 1171.7 260.8V372.2H1161.1V234.4H1171.7L1171.1 246.4C1180.7 236.8 1191.1 233.8 1202.1 233.8C1229.7 233.4 1247.7 254.8 1247.1 286.8C1246.7 321.8 1228.1 339.2 1202.7 338.8Z" fill="black"/>
<path d="M1361.1 257.8C1367.1 267.4 1368.5 279.8 1368.1 290.4C1366.1 321.8 1350.1 339.8 1321.1 339.8C1293.1 339.2 1277.1 319.2 1276.1 288.4C1275.5 251.8 1293.5 232.8 1321.5 232.4C1331.1 231.8 1339.1 233.8 1346.5 238.8V250.8C1338.5 243.8 1330.5 242.8 1322.1 242.8C1299.5 243.4 1286.5 259.8 1287.1 286.8C1287.5 311.2 1298.1 328.8 1321.1 329.8C1341.1 330.2 1355.1 318.8 1357.1 290.8C1358.1 278.8 1355.5 266.8 1350.5 258.4L1361.1 257.8Z" fill="black"/>
<path d="M171.094 89.1597L111.056 433.16L120.907 434.879L180.945 90.879L171.094 89.1597Z" fill="black"/>
<path d="M171.7 267.7L201.5 97.1001L334.4 208.2L171.8 267.7H171.7ZM208.4 115.9L184.6 252.4L314.7 204.8L208.4 115.9Z" fill="black"/>
<path d="M111.053 260.94L81.0854 432.644L90.9365 434.364L120.904 262.659L111.053 260.94Z" fill="black"/>
</svg>
