<svg width="1920" height="1080" viewBox="0 0 1920 1080" fill="none" xmlns="http://www.w3.org/2000/svg">
<g clip-path="url(#clip0_4011_3)">
<path d="M1095.32 958.491C1414.26 947.737 1883.26 1276.37 1518.52 1319.4C1153.78 1362.42 -177.484 1521.48 -225.518 1114.31C-248.423 920.146 -482.839 736.352 -118.099 693.324C246.641 650.297 665.059 972.999 1095.32 958.491Z" fill="#1155CC" fill-opacity="0.48"/>
<path d="M1054.34 233.81C736.132 209.762 305.716 -167.997 672.973 -171.042C1040.23 -174.086 2380.9 -187.202 2384.3 222.784C2385.92 418.286 2598.92 626.518 2231.66 629.563C1864.41 632.608 1483.63 266.253 1054.34 233.81Z" fill="#11B3CC" fill-opacity="0.2"/>
<path d="M2202 963C2320.03 1048.5 1663 1109 1599.97 1375.5C1232.7 1375.5 -48.3258 1549.09 230.5 1248.5C365 1103.5 217.742 1260.54 484.5 984C825.5 630.5 1853.35 710.447 2202 963Z" fill="#2A11CC" fill-opacity="0.21"/>
</g>
</svg>
